<?xml version="1.0" encoding="utf-8"?>
<!-- Generator: Adobe Illustrator 16.0.4, SVG Export Plug-In . SVG Version: 6.00 Build 0)  -->
<!DOCTYPE svg PUBLIC "-//W3C//DTD SVG 1.1//EN" "http://www.w3.org/Graphics/SVG/1.1/DTD/svg11.dtd">
<svg version="1.1" id="Layer_1" xmlns="http://www.w3.org/2000/svg" xmlns:xlink="http://www.w3.org/1999/xlink" x="0px" y="0px"
	 width="288px" height="288px" viewBox="0 0 288 288" enable-background="new 0 0 288 288" xml:space="preserve">
<path fill="#FFFFFF" d="M140.835,21c-67.931,0-123,55.069-123,123c0,67.932,55.069,123,123,123c67.931,0,123-55.068,123-123
	C263.835,76.069,208.768,21,140.835,21z M140.836,248.5c-57.714,0-104.5-46.786-104.5-104.5c0-57.713,46.786-104.5,104.5-104.5
	c57.713,0,104.499,46.787,104.499,104.5C245.335,201.714,198.549,248.5,140.836,248.5z"/>
<path fill="#FFFFFF" d="M214,131.303l-15.838-15.812V75.775h-24.834v14.929l-26.079-26.02c-3.937-3.925-10.386-3.925-14.34,0
	l-66.767,66.619c-3.951,3.928-9.489,16.902,2.97,16.902h11.942v61.916c0,5.584,4.561,10.139,10.131,10.139h48.896v-33.833
	c0-5.575,2.075-10.142,7.661-10.142h13.888c5.573,0,7.657,4.566,7.657,10.142v33.833h19.675c5.576,0,10.14-4.555,10.14-10.139
	v-61.916h11.941C227.189,148.205,217.96,135.231,214,131.303z"/>
</svg>
