<?xml version="1.0" encoding="utf-8"?>
<!-- Generator: Adobe Illustrator 16.0.4, SVG Export Plug-In . SVG Version: 6.00 Build 0)  -->
<!DOCTYPE svg PUBLIC "-//W3C//DTD SVG 1.1//EN" "http://www.w3.org/Graphics/SVG/1.1/DTD/svg11.dtd">
<svg version="1.1" id="Layer_1" xmlns="http://www.w3.org/2000/svg" xmlns:xlink="http://www.w3.org/1999/xlink" x="0px" y="0px"
	 width="288px" height="288px" viewBox="0 0 288 288" enable-background="new 0 0 288 288" xml:space="preserve">
<path fill="#939598" d="M140.835,21c-67.931,0-123,55.069-123,123c0,67.932,55.069,123,123,123c67.931,0,123-55.068,123-123
	C263.835,76.069,208.767,21,140.835,21z M140.836,248.5c-57.714,0-104.5-46.786-104.5-104.5c0-57.713,46.786-104.5,104.5-104.5
	c57.713,0,104.499,46.787,104.499,104.5C245.335,201.714,198.549,248.5,140.836,248.5z"/>
<path fill="#939598" d="M190.663,164.371c0-29.7-26.279-35.858-41.975-39.53c-19.779-4.638-21.547-6.657-21.547-11.283
	c0-5.619,7.568-6.799,13.917-6.799c9.364,0,17.229,3.591,24.769,11.282l2.103,2.154l2.171-2.095l17.105-16.593l2.153-2.098
	l-2.086-2.173c-8.961-9.316-18.861-15.119-30.15-17.756V61.761H127.36v17.536c-19.068,4.509-30.827,17.827-30.827,35.273
	c0,26.931,19.477,33.713,39.436,38.351c22.967,5.219,24.086,8.247,24.086,13.139c0,4.755-1.354,9.006-17.643,9.006
	c-11.466,0-20.897-4.206-28.023-12.496l-2.002-2.344l-2.305,2.05l-17.106,15.248l-1.969,1.758l1.471,2.187
	c7.283,10.832,19.919,18.529,34.882,21.448v17.323h29.763v-17.284C179.056,198.769,190.663,185.489,190.663,164.371z"/>
</svg>
