<?xml version="1.0" encoding="utf-8"?>
<!-- Generator: Adobe Illustrator 16.0.4, SVG Export Plug-In . SVG Version: 6.00 Build 0)  -->
<!DOCTYPE svg PUBLIC "-//W3C//DTD SVG 1.1//EN" "http://www.w3.org/Graphics/SVG/1.1/DTD/svg11.dtd">
<svg version="1.1" id="Layer_1" xmlns="http://www.w3.org/2000/svg" xmlns:xlink="http://www.w3.org/1999/xlink" x="0px" y="0px"
	 width="288px" height="288px" viewBox="0 0 288 288" enable-background="new 0 0 288 288" xml:space="preserve">
<path fill="#FFFFFF" d="M140.835,21c-67.931,0-123,55.069-123,123c0,67.932,55.069,123,123,123c67.931,0,123-55.068,123-123
	C263.835,76.069,208.768,21,140.835,21z M140.836,248.5c-57.714,0-104.5-46.786-104.5-104.5c0-57.713,46.786-104.5,104.5-104.5
	c57.713,0,104.499,46.787,104.499,104.5C245.335,201.714,198.549,248.5,140.836,248.5z"/>
<path fill="#FFFFFF" d="M199.943,77.069h-22.107v5.689h-0.014c3.666,2.133,6.143,6.105,6.143,10.663
	c0,6.825-5.54,12.353-12.359,12.353c-6.83,0-12.353-5.528-12.353-12.353c0-4.558,2.458-8.53,6.136-10.663h-0.021v-5.689h-42.732
	v5.694c3.658,2.147,6.125,6.109,6.125,10.658c0,6.825-5.537,12.353-12.356,12.353c-6.829,0-12.351-5.528-12.351-12.353
	c0-4.548,2.457-8.52,6.125-10.663h-0.01v-5.689H88.065c-4.393,0-7.997,3.59-7.997,7.989V204.93h127.864V85.059
	C207.934,80.66,204.341,77.069,199.943,77.069z M123.346,181.914h-12.399v-45.157h-10.711v-9.187
	c6.966-0.36,11.509-2.943,12.754-8.118h10.356V181.914z M185.635,181.914h-48.902c0.355-21.417,13.479-30.7,28.725-37.387
	c5.351-2.324,7.048-4.823,7.048-7.496c0-3.221-2.768-6.337-10.25-6.337c-7.422,0-13.396,3.307-17.768,7.497l-8.027-9.367
	c6.611-6.69,15.436-10.351,25.344-10.351c14.812,0,23.193,5.976,23.193,17.93c0,10.085-5.453,14.455-16.059,19.363
	c-11.065,5.079-15.348,9.273-16.514,14.104h33.209V181.914z"/>
</svg>
