<?xml version="1.0" encoding="utf-8"?>
<!-- Generator: Adobe Illustrator 16.0.4, SVG Export Plug-In . SVG Version: 6.00 Build 0)  -->
<!DOCTYPE svg PUBLIC "-//W3C//DTD SVG 1.1//EN" "http://www.w3.org/Graphics/SVG/1.1/DTD/svg11.dtd">
<svg version="1.1" id="Layer_1" xmlns="http://www.w3.org/2000/svg" xmlns:xlink="http://www.w3.org/1999/xlink" x="0px" y="0px"
	 width="1121.416px" height="397.48px" viewBox="0 0 1121.416 397.48" enable-background="new 0 0 1121.416 397.48"
	 xml:space="preserve">
<polygon fill="#175973" points="569.132,52.769 242.932,175.762 569.132,298.754 895.332,175.762 "/>
<g>
	<g>
		<g>
			<path fill="#50BFAB" d="M770.185,144.007c0,0-0.828,1.295-2.404,3.759c-0.795,1.23-1.744,2.78-3.037,4.489
				c-0.631,0.869-1.312,1.803-2.037,2.802c-0.367,0.498-0.733,1.022-1.135,1.544c-0.416,0.51-0.845,1.034-1.287,1.574
				c-0.885,1.08-1.821,2.22-2.804,3.419c-0.988,1.198-2.137,2.355-3.275,3.62c-0.577,0.626-1.168,1.267-1.771,1.92
				c-0.6,0.657-1.277,1.259-1.936,1.911c-1.344,1.271-2.684,2.657-4.183,3.972c-5.898,5.367-13.253,10.838-22.026,15.843
				c-8.793,4.962-19.062,9.32-30.521,12.572c-1.422,0.448-2.882,0.791-4.353,1.15c-1.471,0.352-2.951,0.736-4.453,1.072
				c-3.02,0.568-6.072,1.283-9.215,1.703c-6.26,1.062-12.772,1.608-19.453,1.976c-6.687,0.31-13.547,0.208-20.541-0.151
				c-6.984-0.467-14.096-1.226-21.279-2.359c-7.174-1.188-14.421-2.693-21.691-4.557c-7.25-1.917-14.53-4.172-21.827-6.794
				c-1.771-0.665-3.539-1.328-5.302-1.989c-1.77-0.692-3.529-1.386-5.286-2.074c-3.454-1.341-6.891-2.663-10.322-3.903
				c-6.86-2.5-13.662-4.839-20.408-6.914c-6.745-2.075-13.417-3.943-19.998-5.569c-6.589-1.581-13.077-2.957-19.445-4.045
				c-12.74-2.111-25.001-3.224-36.448-2.947c-5.732,0.039-11.232,0.588-16.509,1.206c-5.244,0.803-10.275,1.701-14.959,3.024
				c-9.403,2.518-17.563,6.054-24.304,9.922c-0.847,0.48-1.679,0.95-2.495,1.413c-0.783,0.516-1.556,1.022-2.31,1.521
				c-1.497,1.016-3.014,1.896-4.31,2.952c-1.333,1.012-2.607,1.98-3.824,2.903c-1.187,0.963-2.255,1.95-3.304,2.847
				c-2.134,1.764-3.809,3.543-5.322,5.04c-0.745,0.759-1.47,1.429-2.071,2.099c-0.595,0.68-1.135,1.295-1.617,1.844
				c-1.933,2.196-2.948,3.35-2.948,3.35s0.914-1.233,2.654-3.586c0.438-0.586,0.924-1.243,1.462-1.968
				c0.547-0.718,1.219-1.447,1.908-2.27c1.404-1.625,2.973-3.568,4.99-5.503c0.988-0.984,2.003-2.065,3.136-3.13
				c1.169-1.026,2.396-2.103,3.678-3.228c1.251-1.172,2.728-2.173,4.189-3.315c0.741-0.561,1.496-1.134,2.265-1.717
				c0.805-0.529,1.626-1.069,2.461-1.618c6.659-4.424,14.879-8.607,24.503-11.763c19.229-6.537,43.921-8.058,70.295-4.402
				c6.602,0.915,13.314,2.144,20.124,3.604c6.798,1.504,13.68,3.277,20.618,5.284c6.939,2.009,13.917,4.308,20.938,6.796
				c3.514,1.236,7.021,2.558,10.545,3.907c1.727,0.671,3.459,1.346,5.195,2.02c1.764,0.659,3.529,1.32,5.304,1.985
				c27.894,10.121,56.319,15.088,82.033,14.678c6.427-0.152,12.704-0.453,18.744-1.248c3.038-0.287,5.982-0.861,8.911-1.285
				c1.454-0.261,2.885-0.572,4.312-0.85c1.427-0.285,2.847-0.552,4.228-0.921c11.132-2.637,21.211-6.321,29.965-10.641
				c8.731-4.361,16.196-9.225,22.294-14.087c1.548-1.188,2.942-2.453,4.346-3.609c0.685-0.594,1.395-1.141,2.025-1.743
				c0.635-0.599,1.258-1.187,1.864-1.761c1.205-1.162,2.418-2.224,3.475-3.331c1.057-1.11,2.059-2.167,3.01-3.167
				c0.478-0.502,0.939-0.988,1.391-1.461c0.435-0.485,0.836-0.976,1.235-1.438c0.796-0.935,1.54-1.808,2.23-2.619
				c1.418-1.596,2.481-3.055,3.37-4.213C769.25,145.227,770.185,144.007,770.185,144.007z"/>
		</g>
	</g>
</g>
<path fill="#FFFFFF" d="M685.6,190.281l1.331-7.582h22.338c1.008-0.443,2.001-0.896,2.976-1.358
	c6.234-2.914,11.81-6.155,16.745-9.435h-40.084l4.737-26.851h50.541l5.268-10.794h-65.811l-10.201,58.114
	C677.617,191.84,681.674,191.135,685.6,190.281z"/>
<path fill="#50BFAB" d="M682.25,209.361c-3.974,1.17-8.087,2.176-12.32,3.01l-2.347,13.367h65.415l1.843-10.795h-53.569
	L682.25,209.361z"/>
<path fill="#FFFFFF" d="M647.494,193.479l10.479-59.218h-11.847l-10.36,58.406C639.729,193.052,643.641,193.325,647.494,193.479z"/>
<path fill="#FFFFFF" d="M588.611,182.732l5.658-31.886l16.688,37.826c1.195,0.264,2.389,0.528,3.578,0.774
	c3.807,0.77,7.58,1.41,11.324,1.97l-25.402-57.154H585.32l-7.92,44.755C581.08,180.312,584.841,181.557,588.611,182.732z"/>
<path fill="#50BFAB" d="M572.952,204.146l-3.82,21.593h11.847l3.224-18.16C580.461,206.529,576.73,205.396,572.952,204.146z"/>
<path fill="#50BFAB" d="M631.566,215.255c-3.029-0.14-6.088-0.353-9.157-0.622l4.898,11.105h14.478l1.851-10.453
	C639.66,215.396,635.638,215.398,631.566,215.255z"/>
<path fill="#FFFFFF" d="M515.605,158.91c2.51,0.56,5.024,1.179,7.545,1.826l4.127-7.623l4.213-10.294l0.656,10.032l2.375,11.041
	c0.403,0.121,0.808,0.235,1.212,0.356c3.931,1.183,7.872,2.453,11.815,3.788l-7.242-33.773h-14.74l-13.168,23.955
	C513.468,158.446,514.533,158.671,515.605,158.91z"/>
<path fill="#50BFAB" d="M547.213,194.337c-5.316-2.098-10.565-4.09-15.756-5.979h-23.265l3.615-6.679
	c-0.68-0.211-1.36-0.43-2.038-0.633c-2.876-0.869-5.728-1.7-8.556-2.48l-25.926,47.17h12.636l15.003-27.639h38.828l5.792,27.639
	h12.372l-6.177-28.812C551.556,196.054,549.376,195.189,547.213,194.337z"/>
<path fill="#FFFFFF" d="M429.533,160.334c1.231-0.41,2.479-0.824,3.736-1.243c0.634-0.207,1.271-0.415,1.91-0.625
	c0.647-0.173,1.298-0.349,1.953-0.524c0.737-0.196,1.49-0.396,2.238-0.594l4.066-23.085h-11.846l-4.804,27.14
	C427.691,161.034,428.599,160.658,429.533,160.334z"/>
<path fill="#50BFAB" d="M436.707,172.466c-0.076,0.013-0.153,0.026-0.229,0.038c-1.15,0.187-2.288,0.37-3.413,0.552
	c-1.127,0.191-2.211,0.479-3.304,0.706c-1.853,0.408-3.646,0.875-5.4,1.371l-8.955,50.605h53.7l5.265-10.795h-45.146
	L436.707,172.466z"/>
<g>
	<path fill="#FFFFFF" d="M378.854,137.189v17.288h-2.538v-17.288h-6.543v-2.314h15.597l-0.732,2.314H378.854z"/>
	<path fill="#FFFFFF" d="M389.826,145.256v9.222h-2.538v-19.603h2.538v8.066h10.322v-8.066h2.537v19.603h-2.537v-9.222H389.826z"/>
	<path fill="#FFFFFF" d="M420.117,154.478H406.1v-19.603h14.104l-0.733,2.314h-10.831v5.752h9.702v2.314h-9.702v6.909h11.479
		L420.117,154.478L420.117,154.478z"/>
</g>
</svg>
